<mxfile host="app.diagrams.net" modified="2020-10-19T16:05:30.248Z" agent="5.0 (Windows NT 10.0; Win64; x64) AppleWebKit/537.36 (KHTML, like Gecko) Chrome/81.0.4044.138 Safari/537.36" etag="RL6exAcQ6jEETAnzwJiK" version="13.8.0" type="github">
  <diagram id="cS85VedDlS2XTFr2aMze" name="Page-1">
    <mxGraphModel dx="1422" dy="762" grid="1" gridSize="10" guides="1" tooltips="1" connect="1" arrows="1" fold="1" page="1" pageScale="1" pageWidth="827" pageHeight="1169" math="0" shadow="0">
      <root>
        <mxCell id="0" />
        <mxCell id="1" parent="0" />
        <mxCell id="LYNSF4Jwh1rGnJZMMhyC-1" value="&lt;p class=&quot;MsoNormal&quot; align=&quot;center&quot;&gt;&lt;b&gt;&lt;span style=&quot;font-size: 16pt&quot;&gt;1024&amp;nbsp;&lt;font&gt;程序员节&lt;/font&gt;&lt;/span&gt;&lt;/b&gt;&lt;b&gt;&lt;span style=&quot;font-size: 16pt&quot;&gt;&lt;/span&gt;&lt;/b&gt;&lt;/p&gt;&lt;p class=&quot;MsoNormal&quot; align=&quot;center&quot;&gt;&lt;b&gt;&lt;span style=&quot;font-size: 16pt&quot;&gt;&lt;font&gt;当当网计算机图书大促&lt;/font&gt;&lt;/span&gt;&lt;/b&gt;&lt;b&gt;&lt;span style=&quot;font-size: 16pt&quot;&gt;&lt;/span&gt;&lt;/b&gt;&lt;/p&gt;&lt;p class=&quot;MsoNormal&quot; align=&quot;center&quot;&gt;&lt;b&gt;&lt;span style=&quot;font-size: 16pt&quot;&gt;&lt;font&gt;&lt;br&gt;&lt;/font&gt;&lt;/span&gt;&lt;/b&gt;&lt;/p&gt;&lt;p class=&quot;MsoNormal&quot; align=&quot;center&quot;&gt;&lt;b&gt;&lt;span style=&quot;color: rgb(255 , 0 , 0) ; font-size: 16pt&quot;&gt;&lt;font&gt;每满&amp;nbsp;&lt;/font&gt;100&amp;nbsp;&lt;font&gt;减&amp;nbsp;&lt;/font&gt;&lt;font&gt;50&lt;/font&gt;&lt;font&gt;！&lt;/font&gt;&lt;/span&gt;&lt;/b&gt;&lt;b&gt;&lt;span style=&quot;color: rgb(255 , 0 , 0) ; font-size: 16pt&quot;&gt;&lt;/span&gt;&lt;/b&gt;&lt;/p&gt;&lt;p class=&quot;MsoNormal&quot; align=&quot;center&quot;&gt;&lt;b&gt;&lt;span style=&quot;color: rgb(255 , 0 , 0) ; font-size: 16pt&quot;&gt;&lt;font&gt;满&amp;nbsp;&lt;/font&gt;200&amp;nbsp;&lt;font&gt;减&amp;nbsp;&lt;/font&gt;&lt;font&gt;100&lt;/font&gt;&lt;font&gt;！&lt;/font&gt;&lt;/span&gt;&lt;/b&gt;&lt;b&gt;&lt;span style=&quot;color: rgb(255 , 0 , 0) ; font-size: 16pt&quot;&gt;&lt;/span&gt;&lt;/b&gt;&lt;/p&gt;&lt;p class=&quot;MsoNormal&quot; align=&quot;center&quot;&gt;&lt;b&gt;&lt;span style=&quot;color: rgb(255 , 0 , 0) ; font-size: 16pt&quot;&gt;&lt;font&gt;满&amp;nbsp;&lt;/font&gt;300&amp;nbsp;&lt;font&gt;减&amp;nbsp;&lt;/font&gt;&lt;font&gt;150&lt;/font&gt;&lt;font&gt;！&lt;/font&gt;&lt;/span&gt;&lt;/b&gt;&lt;b&gt;&lt;span style=&quot;color: rgb(255 , 0 , 0) ; font-size: 16pt&quot;&gt;&lt;/span&gt;&lt;/b&gt;&lt;/p&gt;&lt;p class=&quot;MsoNormal&quot; align=&quot;center&quot;&gt;&lt;b&gt;&lt;span style=&quot;color: rgb(255 , 0 , 0) ; font-size: 16pt&quot;&gt;……&lt;/span&gt;&lt;/b&gt;&lt;b&gt;&lt;span style=&quot;color: rgb(255 , 0 , 0) ; font-size: 16pt&quot;&gt;&lt;/span&gt;&lt;/b&gt;&lt;/p&gt;" style="rounded=1;whiteSpace=wrap;html=1;fontFamily=Comic Sans MS;fillColor=#ffff88;sketch=0;strokeColor=none;" vertex="1" parent="1">
          <mxGeometry x="70" y="120" width="360" height="330" as="geometry" />
        </mxCell>
      </root>
    </mxGraphModel>
  </diagram>
</mxfile>
